<?xml version="1.0" encoding="utf-8"?>
<!-- Generator: Adobe Illustrator 27.7.0, SVG Export Plug-In . SVG Version: 6.00 Build 0)  -->
<svg version="1.1" id="Layer_1" xmlns="http://www.w3.org/2000/svg" xmlns:xlink="http://www.w3.org/1999/xlink" x="0px" y="0px"
	 viewBox="0 0 595.28 841.89" style="enable-background:new 0 0 595.28 841.89;" xml:space="preserve">
<style type="text/css">
	.st0{fill:none;stroke:#F15A29;stroke-width:8.5039;stroke-miterlimit:10;}
	.st1{fill:none;stroke:#EF4136;stroke-width:8.5039;stroke-miterlimit:10;}
	.st2{fill:none;stroke:#EC008C;stroke-width:8.5039;stroke-miterlimit:10;}
	.st3{fill:none;stroke:#FBB040;stroke-width:8.5039;stroke-miterlimit:10;}
	.st4{fill:none;stroke:#FFDE17;stroke-width:8.5039;stroke-miterlimit:10;}
</style>
<polygon class="st0" points="299.04,190.89 363.13,320.74 506.43,341.56 402.74,442.64 427.22,585.36 299.04,517.97 170.87,585.36 
	195.35,442.64 91.66,341.56 234.96,320.74 "/>
<polygon class="st1" points="299.04,270.12 337.38,347.81 423.12,360.27 361.08,420.74 375.73,506.12 299.04,465.81 222.36,506.12 
	237.01,420.74 174.97,360.27 260.7,347.81 "/>
<polygon class="st2" points="299.04,332.37 317.16,369.08 357.66,374.96 328.35,403.53 335.27,443.87 299.04,424.83 262.82,443.87 
	269.73,403.53 240.43,374.96 280.93,369.08 "/>
<polygon class="st3" points="299.04,184.24 84.67,339.99 166.55,592 431.53,592 513.42,339.99 "/>
<circle class="st4" cx="298.34" cy="409.76" r="230.46"/>
</svg>
